# xmcd
#
# Track frame offsets:
#	150
#	17931
#	33064
#	61234
#	79641
#	94286
#	109232
#	126249
#	140666
#	153660
#
# Disc length: 2249 seconds
#
# Revision: 0
# Processed by: cddbd v1.5.1PL0 Copyright (c) Steve Scherf et al.
# Submitted via: dBpowerAMP V4.0
#
DISCID=8308c70a
DTITLE=Chet Atkins and Mark Knopfler - Neck and Neck
DYEAR=1996
DGENRE=Country
TTITLE0=Poor Boy Blues
TTITLE1=Sweet Dreams
TTITLE2=There'll Be Some Changes Made
TTITLE3=Just One Time
TTITLE4=So Soft, Your Goodbye
TTITLE5=Yakety Axe
TTITLE6=Tears
TTITLE7=Tahitian Skies
TTITLE8=I'll See You In My Dreams
TTITLE9=Next Time I'm In Town
EXTD=
EXTT0=
EXTT1=
EXTT2=
EXTT3=
EXTT4=
EXTT5=
EXTT6=
EXTT7=
EXTT8=
EXTT9=
PLAYORDER=
